<svg xmlns="http://www.w3.org/2000/svg" width="104" height="86" version="1"><linearGradient id="a" x2="104" y1="43" y2="43" gradientUnits="userSpaceOnUse"><stop offset="0" stop-color="#fff"/><stop offset=".408" stop-color="#D1D3D4"/><stop offset=".797" stop-color="#F1F2F2"/><stop offset="1" stop-color="#D1D3D4"/></linearGradient><path fill="url(#a)" d="M104 0H84.94c-4.57 0-6.68 3.08-6.68 3.08S22.24 71.5 13.1 78.94C5.15 85.4.95 85.96 0 86h74.1L104 0z"/><linearGradient id="b" x1="9.845" x2="71.379" y1="55.975" y2="55.975" gradientUnits="userSpaceOnUse"><stop offset="0" stop-color="#ED1C24"/><stop offset=".043" stop-color="#DF1C24"/><stop offset=".119" stop-color="#CC1C24"/><stop offset=".197" stop-color="#C11C24"/><stop offset=".281" stop-color="#BD1C24"/><stop offset=".668" stop-color="#ED1C24"/><stop offset=".888" stop-color="#BC1C24"/><stop offset="1" stop-color="#AB3E3A"/></linearGradient><path fill="url(#b)" d="M39.98 71.03c.17-.3 17.06-23.38 18.17-25.5 1.1-2.1 13.23-19.58 13.23-19.58a152.83 152.83 0 00-5.64 4.27C44.38 47.16 21.37 73.42 9.84 86h18.32a5270.27 5270.27 0 0011.1-14.02c.44-.57.7-.92.72-.95z"/><linearGradient id="c" x1="97.879" x2="61.122" y1="-1.889" y2="61.776" gradientUnits="userSpaceOnUse"><stop offset="0" stop-color="#006838"/><stop offset=".009" stop-color="#006838"/><stop offset=".281" stop-color="#006838"/><stop offset=".382" stop-color="#006838"/><stop offset=".668" stop-color="#006838"/><stop offset=".888" stop-color="#009444"/><stop offset="1" stop-color="#006838"/></linearGradient><path fill="url(#c)" d="M94.34 27.78l9.18-26.4c-2.9 2.88-5.8 5.5-8 6.93l-24.2 17.74c-.9 1.3-12.1 17.48-13.17 19.5-.46.88-3.65 5.37-7.22 10.35 4.42-4.2 13.1-11.43 23.26-14.96 7.17-2.5 14.54-8.12 20.14-13.16z"/><path d="M88.25 45.32c-4.36 3.4-10.8 7.38-19.86 10.76-7.84 2.9-19.7 9.87-29.15 15.9A5076.8 5076.8 0 0128.15 86h13.3c1.9-.8 3.36-1.43 4.1-1.75C49.37 82.6 68.48 77.7 80 69l8.23-23.68z"/></svg>